<?xml version="1.0" standalone="no"?>
<!DOCTYPE svg PUBLIC "-//W3C//DTD SVG 20010904//EN"
 "http://www.w3.org/TR/2001/REC-SVG-20010904/DTD/svg10.dtd">
<svg version="1.0" xmlns="http://www.w3.org/2000/svg"
 width="849.000000pt" height="849.000000pt" viewBox="0 0 849.000000 849.000000"
 preserveAspectRatio="xMidYMid meet">
<metadata>
Created by potrace 1.14, written by Peter Selinger 2001-2017
</metadata>
<g transform="translate(0.000000,849.000000) scale(0.100000,-0.100000)"
fill="#000000" stroke="none">
<path d="M7210 8075 c-426 -77 -764 -385 -875 -796 -14 -52 -29 -128 -32 -169
-4 -41 -7 -1344 -7 -2895 1 -2194 3 -2833 13 -2880 7 -33 14 -71 17 -85 3 -14
16 -58 29 -98 125 -365 438 -639 825 -722 85 -18 293 -21 389 -5 303 50 582
233 745 489 51 79 94 168 121 253 25 75 28 88 45 188 11 61 8 5778 -3 5820 -4
17 -14 57 -22 90 -63 258 -242 504 -472 651 -108 70 -253 128 -384 155 -83 17
-303 19 -389 4z"/>
<path d="M4425 6988 c-115 -14 -131 -17 -219 -43 -294 -86 -544 -300 -677
-580 -34 -72 -75 -194 -95 -285 -10 -47 -14 -3529 -4 -3605 26 -195 99 -378
211 -527 59 -80 177 -192 258 -247 127 -87 308 -160 431 -176 30 -4 58 -9 62
-11 20 -12 284 -3 327 12 8 3 30 7 50 10 93 15 275 97 380 171 251 178 415
448 458 755 4 29 8 841 8 1803 0 1904 3 1797 -57 1980 -87 264 -280 490 -528
619 -87 45 -202 88 -275 102 -22 5 -42 9 -45 9 -65 16 -210 22 -285 13z"/>
<path d="M739 5066 c-2 -2 -27 -6 -54 -10 -189 -22 -405 -157 -530 -331 -35
-50 -107 -178 -104 -187 0 -2 -2 -10 -5 -18 -34 -105 -38 -133 -41 -263 -6
-326 164 -602 461 -751 162 -81 189 -83 930 -81 351 2 653 6 669 9 194 44 332
121 456 251 54 58 71 82 116 161 68 120 103 250 105 392 4 345 -212 660 -534
777 -83 30 -88 32 -182 45 -62 9 -1278 15 -1287 6z"/>
</g>
</svg>
