<?xml version="1.0" standalone="no"?>
<!DOCTYPE svg PUBLIC "-//W3C//DTD SVG 20010904//EN"
 "http://www.w3.org/TR/2001/REC-SVG-20010904/DTD/svg10.dtd">
<svg version="1.0" xmlns="http://www.w3.org/2000/svg"
 width="3000.000000pt" height="3000.000000pt" viewBox="0 0 3000.000000 3000.000000"
 preserveAspectRatio="xMidYMid meet">
<metadata>
Created by potrace 1.14, written by Peter Selinger 2001-2017
</metadata>
<g transform="translate(0.000000,3000.000000) scale(0.100000,-0.100000)"
fill="#000000" stroke="none">
<path d="M6099 29996 c-2 -2 -56 -6 -119 -10 -63 -3 -126 -8 -140 -10 -14 -3
-57 -7 -97 -11 -40 -3 -89 -8 -110 -10 -78 -10 -190 -26 -213 -30 -13 -3 -42
-7 -65 -10 -35 -5 -68 -11 -165 -30 -14 -3 -37 -7 -53 -10 -144 -27 -397 -90
-577 -145 -74 -23 -150 -46 -168 -51 -58 -18 -324 -116 -422 -157 -219 -91
-522 -236 -648 -311 -29 -17 -55 -31 -57 -31 -9 0 -270 -160 -390 -238 -120
-79 -413 -292 -460 -334 -11 -9 -47 -39 -80 -65 -33 -26 -65 -52 -71 -58 -6
-5 -42 -37 -80 -70 -706 -619 -1258 -1371 -1649 -2250 -11 -25 -45 -105 -84
-200 -70 -166 -207 -588 -246 -752 -38 -160 -84 -366 -89 -393 -3 -19 -8 -47
-11 -63 -12 -69 -25 -145 -30 -182 -3 -22 -7 -49 -10 -60 -2 -11 -7 -45 -11
-75 -7 -60 -7 -63 -18 -165 -4 -38 -9 -83 -11 -100 -2 -16 -7 -82 -12 -145
-10 -144 -11 -17918 -1 -18055 4 -55 10 -118 12 -140 3 -22 8 -67 11 -100 3
-33 7 -71 9 -85 3 -14 7 -49 10 -78 4 -30 11 -84 17 -120 5 -37 12 -78 14 -92
1 -14 11 -65 20 -115 9 -49 18 -99 20 -110 15 -82 94 -412 115 -480 6 -16 26
-84 46 -150 118 -388 348 -924 528 -1228 25 -43 46 -81 46 -83 0 -14 206 -334
328 -509 89 -127 308 -403 417 -524 176 -196 425 -444 585 -581 14 -12 36 -31
50 -43 36 -32 139 -117 184 -152 22 -16 62 -48 90 -71 28 -22 83 -62 121 -89
39 -27 72 -52 75 -55 3 -3 66 -45 140 -94 74 -49 146 -96 160 -106 29 -19 258
-152 343 -199 147 -81 388 -197 554 -266 48 -20 97 -41 108 -46 226 -102 865
-292 1120 -334 11 -2 56 -10 100 -18 44 -9 98 -18 120 -21 22 -2 47 -7 55 -10
8 -2 38 -7 65 -10 28 -3 61 -8 75 -10 26 -5 79 -11 185 -21 33 -3 77 -8 97
-10 20 -2 87 -8 150 -12 148 -10 17866 -10 18023 0 66 4 136 9 155 11 19 2 67
7 105 10 39 4 81 8 95 11 14 2 48 6 75 10 28 3 64 7 80 10 17 2 46 7 65 10 19
2 44 6 55 9 11 2 43 7 70 11 28 5 52 9 55 10 3 1 25 5 50 9 25 5 52 10 60 11
474 98 972 260 1385 450 89 40 330 161 385 192 19 11 69 39 110 62 41 23 82
46 90 51 261 160 338 210 475 308 86 62 345 260 355 272 3 3 21 18 40 34 161
131 474 432 620 595 36 40 74 83 85 95 11 12 40 46 65 75 25 30 61 73 80 95
54 64 260 340 332 446 372 546 662 1159 852 1800 41 140 121 470 141 585 18
106 45 266 50 300 3 22 7 54 10 70 3 17 7 53 10 80 2 28 7 73 10 100 3 28 7
70 10 95 2 25 8 95 12 155 10 141 10 17934 1 18040 -5 44 -10 109 -13 145 -6
65 -13 129 -20 185 -2 17 -7 53 -10 80 -56 470 -200 1031 -388 1510 -33 83
-47 115 -98 233 -11 23 -28 63 -40 90 -73 165 -315 618 -355 663 -8 8 -14 19
-14 23 0 24 -409 605 -472 670 -7 7 -25 28 -40 47 -14 19 -35 43 -45 55 -10
12 -43 50 -73 84 -160 185 -431 456 -594 595 -32 28 -71 61 -86 75 -45 40 -71
62 -140 115 -36 28 -67 53 -70 56 -28 32 -414 302 -559 390 -40 24 -89 54
-109 67 -20 12 -46 27 -57 32 -11 6 -27 14 -35 20 -55 36 -174 100 -185 100
-8 0 -16 4 -20 9 -3 6 -33 23 -68 40 -257 122 -338 160 -456 208 -227 93 -638
234 -750 258 -9 2 -70 17 -136 34 -114 28 -274 64 -340 76 -16 2 -39 7 -50 9
-11 2 -40 7 -65 11 -25 4 -54 9 -65 11 -33 7 -67 12 -125 20 -57 7 -60 8 -150
19 -30 3 -66 8 -80 10 -14 2 -68 7 -120 10 -52 4 -106 10 -120 13 -27 6
-17934 14 -17941 8z"/>
</g>
</svg>
